<?xml version="1.0" encoding="utf-8"?>
<!-- Generator: Adobe Illustrator 16.0.1, SVG Export Plug-In . SVG Version: 6.00 Build 0)  -->
<!DOCTYPE svg PUBLIC "-//W3C//DTD SVG 1.1//EN" "http://www.w3.org/Graphics/SVG/1.1/DTD/svg11.dtd">
<svg version="1.1" id="Layer_1" xmlns="http://www.w3.org/2000/svg" xmlns:xlink="http://www.w3.org/1999/xlink" x="0px" y="0px"
	 width="514.231px" height="514.631px" viewBox="0 0 514.231 514.631" enable-background="new 0 0 514.231 514.631"
	 xml:space="preserve">
<path d="M256.82,429.822c-1.068,0-2.085-0.039-2.861-0.076c-0.615,0.053-1.25,0.076-1.887,0.076
	c-22.436,0-37.438-10.607-50.678-19.974c-9.488-6.702-18.438-13.03-28.922-14.774c-5.148-0.854-10.271-1.287-15.221-1.287
	c-8.916,0-15.963,1.383-21.107,2.389c-3.166,0.617-5.896,1.148-8.007,1.148c-2.21,0-4.896-0.49-6.014-4.312
	c-0.888-3.014-1.523-5.934-2.138-8.746c-1.535-7.026-2.649-11.315-5.281-11.723c-28.14-4.342-44.767-10.738-48.079-18.484
	c-0.347-0.813-0.541-1.633-0.584-2.442c-0.129-2.31,1.501-4.334,3.777-4.711c22.348-3.681,42.218-15.492,59.064-35.119
	c13.049-15.195,19.457-29.713,20.145-31.315c0.03-0.072,0.065-0.148,0.102-0.218c3.247-6.588,3.893-12.28,1.926-16.916
	c-3.626-8.551-15.635-12.36-23.58-14.882c-1.976-0.625-3.845-1.217-5.334-1.809c-7.043-2.781-18.626-8.66-17.083-16.772
	c1.124-5.916,8.949-10.036,15.272-10.036c1.757,0,3.312,0.309,4.623,0.923c7.146,3.349,13.574,5.046,19.104,5.046
	c6.876,0,10.197-2.619,11-3.363c-0.197-3.668-0.439-7.545-0.674-11.213c0-0.004-0.005-0.048-0.005-0.048
	c-1.614-25.675-3.627-57.627,4.546-75.95c24.463-54.847,76.34-59.112,91.65-59.112c0.408,0,6.673-0.062,6.673-0.062
	c0.283-0.005,0.59-0.009,0.908-0.009c15.355,0,67.34,4.27,91.816,59.15c8.174,18.335,6.158,50.314,4.539,76.016l-0.076,1.23
	c-0.223,3.49-0.426,6.793-0.6,9.994c0.756,0.697,3.795,3.097,9.979,3.34c5.27-0.202,11.328-1.891,17.998-5.014
	c2.061-0.969,4.344-1.17,5.895-1.17c2.344,0,4.727,0.456,6.713,1.285l0.107,0.041c5.66,2.01,9.367,6.023,9.447,10.242
	c0.07,3.932-2.852,9.809-17.225,15.484c-1.471,0.584-3.35,1.18-5.334,1.809c-7.951,2.523-19.949,6.332-23.576,14.878
	c-1.971,4.636-1.322,10.326,1.926,16.912c0.037,0.071,0.066,0.146,0.102,0.221c1,2.345,25.205,57.535,79.209,66.433
	c2.275,0.379,3.908,2.406,3.779,4.711c-0.049,0.828-0.248,1.655-0.598,2.465c-3.289,7.703-19.916,14.09-48.064,18.438
	c-2.643,0.408-3.756,4.679-5.277,11.668c-0.631,2.888-1.271,5.718-2.146,8.691c-0.818,2.797-2.641,4.164-5.566,4.164h-0.441
	c-1.904,0-4.604-0.346-8.008-1.012c-5.949-1.158-12.623-2.236-21.109-2.236c-4.947,0-10.068,0.434-15.225,1.287
	c-10.473,1.744-19.42,8.062-28.893,14.758C294.263,419.214,279.255,429.822,256.82,429.822"/>
<rect x="147.553" y="39.443" fill="none" width="514.23" height="514.23"/>
</svg>
