<?xml version="1.0" encoding="utf-8"?>
<!-- Generator: Adobe Illustrator 16.0.4, SVG Export Plug-In . SVG Version: 6.00 Build 0)  -->
<!DOCTYPE svg PUBLIC "-//W3C//DTD SVG 1.1//EN" "http://www.w3.org/Graphics/SVG/1.1/DTD/svg11.dtd">
<svg version="1.1" id="Layer_1" xmlns="http://www.w3.org/2000/svg" xmlns:xlink="http://www.w3.org/1999/xlink" x="0px" y="0px"
	 width="317.128px" height="27.612px" viewBox="0 12.823 317.128 27.612" enable-background="new 0 12.823 317.128 27.612"
	 xml:space="preserve">
<g>
	<path d="M8.77,37.749c0,1.226,0.355,1.462,1.146,1.66l1.225,0.276v0.553H3.002v-0.553l1.027-0.237
		c0.79-0.197,1.146-0.593,1.146-1.698V13.811H4.306c-2.449,0-3.437,3.99-3.713,8.217H0v-9.007h13.944v9.007h-0.593
		c-0.276-4.227-1.264-8.216-3.713-8.216H8.77V37.749z M14.814,39.686l0.869-0.238c0.79-0.197,1.146-0.592,1.146-1.698V15.47
		c0-1.106-0.356-1.462-1.146-1.66l-0.869-0.237v-0.553h7.703v0.553l-0.909,0.237c-0.75,0.198-1.185,0.514-1.185,1.62v10.389h5.965
		V15.43c0-1.106-0.435-1.422-1.185-1.62l-0.909-0.237v-0.553h7.703v0.553l-0.869,0.237c-0.79,0.198-1.146,0.553-1.146,1.66v22.24
		c0,1.106,0.355,1.541,1.146,1.738l0.869,0.237v0.553h-7.704v-0.553l0.909-0.197c0.75-0.197,1.185-0.633,1.185-1.738V26.728h-5.965
		v11.021c0,1.106,0.435,1.541,1.185,1.738l0.909,0.198v0.552h-7.703V39.686z M38.476,39.448h2.725c3.556,0,4.227-4.029,4.701-8.216
		h0.592v9.006H32.866v-0.553l0.869-0.237c0.791-0.197,1.146-0.593,1.146-1.698V15.509c0-1.106-0.355-1.501-1.146-1.699l-0.869-0.237
		v-0.553H46.1v9.007h-0.593c-0.434-4.227-1.264-8.217-4.306-8.217h-2.725v11.891l1.264-0.04c1.699-0.119,2.331-1.58,2.765-5.017
		h0.592v10.981h-0.592c-0.355-4.306-1.027-4.978-2.805-5.096l-1.224-0.04V39.448L38.476,39.448z M54.94,16.655
		c-0.513-2.33-0.829-2.686-1.58-2.883l-0.75-0.198v-0.553h7.387v0.553l-0.593,0.118c-1.264,0.277-1.146,1.541-0.79,3.24
		l3.121,15.485l2.292-12.325l-0.83-4.227c-0.316-1.501-0.435-1.975-1.224-2.173l-0.514-0.118V13.02h7.229v0.553l-0.869,0.158
		c-1.304,0.237-1.106,1.659-0.791,3.199l3.002,15.486l2.963-14.656c0.553-3.042,0.276-3.792-0.908-4.029l-0.83-0.158v-0.553h5.412
		v0.553l-0.75,0.198c-0.948,0.237-1.185,0.987-1.738,3.634L69.36,40.396h-1.027l-3.713-17.934l-3.357,17.934h-1.304L54.94,16.655z
		 M93.575,39.448h1.58c3.357,0,4.346-3.99,4.74-8.216h0.593v9.006H80.302v-0.553l0.83-0.159c1.699-0.314,1.699-0.789,1.264-3.16
		l-0.75-3.555h-4.859l-0.514,2.687c-0.593,3.042-0.277,3.791,0.909,4.028l0.83,0.159v0.553H72.52v-0.553l0.671-0.198
		c1.066-0.315,1.343-0.947,1.896-3.634l4.819-22.991h1.185l5.057,23.741c0.514,2.45,0.75,2.962,2.172,2.962
		c1.224,0,1.659-0.632,1.659-1.816V15.47c0-1.106-0.355-1.462-1.146-1.66l-0.869-0.237v-0.553h7.822v0.592L94.72,13.85
		c-0.79,0.158-1.145,0.514-1.145,1.62L93.575,39.448L93.575,39.448z M76.944,31.903h4.503l-2.292-11.218L76.944,31.903z
		 M106.966,39.448h1.58c3.358,0,4.346-3.99,4.74-8.216h0.592v9.006h-12.522v-0.553l0.869-0.237c0.79-0.197,1.146-0.593,1.146-1.698
		V15.47c0-1.106-0.355-1.462-1.146-1.66l-0.869-0.237v-0.553h7.822v0.592l-1.066,0.237c-0.791,0.158-1.146,0.514-1.146,1.62V39.448
		L106.966,39.448z M126.761,40.396c-2.292,0-3.081-1.579-3.832-1.579c-0.435,0-0.948,0.118-1.343,1.422h-0.474v-9.007h0.593
		c0.474,5.096,2.371,8.295,5.017,8.295c1.777,0,3.002-1.62,3.002-4.542c0-6.163-8.809-8.81-8.809-15.644
		c0-3.674,1.896-6.479,5.254-6.479c2.172,0,2.646,1.422,3.555,1.422c0.514,0,0.869-0.395,1.066-1.264h0.475v9.007h-0.593
		c-0.474-4.543-1.699-8.295-4.543-8.295c-1.975,0-2.37,1.975-2.37,3.318c0,5.887,8.809,7.901,8.809,16.117
		C132.567,37.354,130.276,40.396,126.761,40.396z M141.297,37.749c0,1.106,0.355,1.501,1.146,1.698l1.027,0.238v0.552h-7.939v-0.552
		l1.027-0.238c0.791-0.197,1.146-0.592,1.146-1.698V13.811h-0.869c-2.449,0-3.437,3.99-3.713,8.217h-0.593v-9.007h13.945v9.007
		h-0.593c-0.276-4.227-1.264-8.216-3.713-8.216h-0.869L141.297,37.749L141.297,37.749z M147.341,39.686l0.869-0.238
		c0.79-0.197,1.146-0.592,1.146-1.698V15.47c0-1.106-0.355-1.462-1.146-1.66l-0.869-0.237v-0.553h7.545
		c3.358,0,6.479,2.133,6.479,6.597c0,3.437-1.62,5.847-4.899,6.716c3.595,0.671,3.595,2.371,3.951,6.913l0.237,3.477
		c0.119,1.936,0.198,2.37,0.75,2.37c0.593,0,0.83-1.343,0.83-2.646v-0.672h0.671v0.907c0,2.174-0.474,3.714-2.725,3.714
		c-2.213,0-3.24-1.264-3.398-5.807l-0.197-5.056c-0.079-2.41-0.672-2.766-1.817-2.766h-1.856v10.981
		c0,1.106,0.355,1.541,1.146,1.738l0.869,0.198v0.552h-7.585L147.341,39.686L147.341,39.686z M152.911,25.978h1.304
		c2.212,0,3.318-0.592,3.318-5.846s-1.462-6.32-3.042-6.32h-1.58L152.911,25.978L152.911,25.978z M168.751,39.448h2.726
		c3.555,0,4.228-4.029,4.701-8.216h0.593v9.006h-13.628v-0.553l0.869-0.237c0.79-0.197,1.146-0.593,1.146-1.698V15.509
		c0-1.106-0.356-1.501-1.146-1.699l-0.869-0.237v-0.553h13.234v9.007h-0.593c-0.434-4.227-1.263-8.217-4.306-8.217h-2.726v11.891
		l1.265-0.04c1.698-0.119,2.331-1.58,2.765-5.017h0.593v10.981h-0.593c-0.356-4.306-1.026-4.978-2.805-5.096l-1.224-0.04V39.448z
		 M183.408,39.448h2.726c3.554,0,4.227-4.029,4.699-8.216h0.593v9.006h-13.627v-0.553l0.869-0.237
		c0.79-0.197,1.146-0.593,1.146-1.698V15.509c0-1.106-0.356-1.501-1.146-1.699l-0.869-0.237v-0.553h13.233v9.007h-0.593
		c-0.435-4.227-1.264-8.217-4.305-8.217h-2.726v11.891l1.264-0.04c1.698-0.119,2.33-1.58,2.765-5.017h0.592v10.981h-0.592
		c-0.355-4.306-1.027-4.978-2.805-5.096l-1.224-0.04V39.448z M201.065,37.749c0,1.226,0.356,1.462,1.146,1.66l1.224,0.276v0.553
		h-8.137v-0.553l1.027-0.237c0.789-0.197,1.146-0.593,1.146-1.698V13.811h-0.869c-2.449,0-3.437,3.99-3.713,8.217h-0.592v-9.007
		h13.944v9.007h-0.592c-0.277-4.227-1.264-8.216-3.713-8.216h-0.869V37.749z M222.755,33.958c0,4.227-2.134,6.438-5.412,6.438
		c-2.962,0-4.7-2.409-4.661-5.056c0.039-2.054,1.54-3.081,2.765-2.923c0.869,0.119,1.739,0.75,1.62,2.133
		c-0.119,1.975-2.252,1.896-2.331,3.121c-0.079,0.75,0.908,1.856,2.172,1.856c2.212,0,2.212-2.805,2.212-4.938V15.43
		c0-1.106-0.356-1.422-1.224-1.62l-0.987-0.237v-0.553h7.782v0.553l-0.869,0.237c-0.79,0.198-1.066,0.553-1.066,1.66L222.755,33.958
		L222.755,33.958z M231.959,40.436c-4.622,0-6.874-6.241-6.874-13.826c0-7.545,2.173-13.786,6.874-13.786
		c4.662,0,6.913,6.241,6.913,13.786C238.873,34.194,236.739,40.436,231.959,40.436z M231.959,13.732
		c-1.975,0-2.962,1.58-2.962,12.72c0,11.496,0.908,13.115,2.962,13.115s3.002-1.619,3.002-13.195
		C234.962,15.312,234.014,13.732,231.959,13.732z M254.516,39.686l0.869-0.238c0.79-0.197,1.146-0.592,1.146-1.698V15.47
		c0-1.304-0.593-1.778-1.976-1.778c-1.738,0-2.172,0.79-2.172,3.042v17.144c0,4.268-1.501,6.558-5.175,6.558
		c-3.792,0-6.003-2.29-6.003-6.439V15.47c0-1.106-0.277-1.462-1.067-1.66l-0.869-0.237v-0.553h7.861v0.553l-1.066,0.237
		c-0.87,0.198-1.225,0.514-1.225,1.62v18.843c0,3.832,1.106,4.819,3.121,4.819c2.371,0,3.358-1.344,3.358-5.215V18.156
		c0-3.318-0.039-4.109-1.461-4.424l-0.751-0.158v-0.553h12.957c3.358,0,6.479,2.133,6.479,6.597c0,3.437-1.62,5.847-4.898,6.716
		c3.595,0.671,3.595,2.371,3.95,6.913l0.237,3.477c0.119,1.936,0.197,2.37,0.751,2.37c0.593,0,0.83-1.343,0.83-2.646v-0.672h0.671
		v0.907c0,2.174-0.474,3.714-2.725,3.714c-2.212,0-3.239-1.264-3.398-5.807l-0.197-5.056c-0.079-2.41-0.672-2.766-1.817-2.766
		h-1.857v10.981c0,1.106,0.355,1.541,1.146,1.738l0.869,0.198v0.552h-7.584L254.516,39.686L254.516,39.686z M260.086,25.978h1.304
		c2.211,0,3.317-0.592,3.317-5.846s-1.461-6.32-3.041-6.32h-1.58V25.978z M270.791,13.732l-0.553-0.158v-0.553h5.174l7.071,17.934
		V18.037c0-2.923,0.079-3.95-2.015-4.305l-0.671-0.158v-0.553h5.846v0.553l-0.553,0.158c-1.698,0.395-1.579,1.777-1.579,4.542
		v21.964h-1.265l-8.849-21.766v16.75c0,3.199,0,4.108,2.528,4.464v0.552h-5.689v-0.552l0.711-0.119
		c1.461-0.277,1.422-1.698,1.422-4.582V16.102C271.699,14.719,271.423,13.968,270.791,13.732z M305.554,39.448h1.58
		c3.357,0,4.345-3.99,4.74-8.216h0.593v9.006H292.32v-0.553l0.83-0.159c1.699-0.314,1.739-0.789,1.265-3.16l-0.751-3.555h-4.858
		l-0.515,2.687c-0.592,3.042-0.276,3.791,0.909,4.028l0.829,0.159v0.553h-5.491v-0.553l0.671-0.198
		c1.067-0.315,1.343-0.947,1.896-3.634l4.819-22.991h1.186l5.056,23.741c0.514,2.45,0.711,2.962,2.134,2.962
		c1.224,0,1.659-0.632,1.659-1.816V15.47c0-1.106-0.355-1.462-1.145-1.66l-0.869-0.237v-0.553h7.822v0.592l-1.067,0.237
		c-0.79,0.158-1.146,0.514-1.146,1.62L305.554,39.448L305.554,39.448z M288.962,31.903h4.504l-2.291-11.218L288.962,31.903z
		 M317.128,38.501c0,1.065-0.79,1.855-1.738,1.855c-0.948,0-1.738-0.79-1.738-1.855c0-1.067,0.791-1.857,1.738-1.857
		C316.338,36.644,317.128,37.434,317.128,38.501z"/>
</g>
</svg>
