<?xml version="1.0" encoding="utf-8"?>
<!-- Generator: Adobe Illustrator 19.0.0, SVG Export Plug-In . SVG Version: 6.00 Build 0)  -->
<svg version="1.1" id="Layer_1" xmlns="http://www.w3.org/2000/svg" xmlns:xlink="http://www.w3.org/1999/xlink" x="0px" y="0px"
	 viewBox="0 0 135 40" style="enable-background:new 0 0 135 40;" xml:space="preserve">
<style type="text/css">
	.st0{fill:#010101;}
	.st1{fill:#FFFFFF;}
</style>
<g id="XMLID_30_">
	<path id="XMLID_28_" class="st0" d="M130.2,40H4.7C2.1,40,0,37.9,0,35.3V4.7C0,2.1,2.1,0,4.7,0h125.5c2.6,0,4.8,2.1,4.8,4.7v30.5
		C135,37.9,132.8,40,130.2,40L130.2,40L130.2,40z"/>
	<g id="XMLID_31_">
		<g id="XMLID_63_">
			<g id="bag_1_">
				<path id="XMLID_64_" class="st1" d="M19.4,30.2L9.1,28.7V20h10.3V30.2z M19.4,19.2H9.1V11l10.3-1.4V19.2z M33.5,32.2l-13.3-1.9
					V20h13.3V32.2z M33.5,19.2H20.2V9.5l13.3-1.9V19.2z"/>
			</g>
		</g>
		<g id="XMLID_32_">
			<path id="XMLID_23_" class="st1" d="M47.9,15c-0.8,0.4-1.6,0.6-2.5,0.6c-0.7,0-1.3-0.2-1.9-0.5c-0.5-0.3-1-0.8-1.3-1.4
				c-0.3-0.6-0.4-1.2-0.4-2c0-1.2,0.4-2.1,1.1-2.9c0.7-0.8,1.7-1.1,2.8-1.1c0.8,0,1.5,0.1,2.1,0.4v1c-0.6-0.4-1.3-0.6-2.2-0.6
				c-0.5,0-1,0.1-1.5,0.4c-0.4,0.3-0.8,0.6-1,1.1c-0.2,0.5-0.4,1-0.4,1.6c0,1,0.2,1.7,0.7,2.3c0.5,0.5,1.2,0.8,2,0.8
				c0.6,0,1.1-0.1,1.5-0.4v-2.1h-1.6v-0.8h2.5L47.9,15L47.9,15z"/>
			<path id="XMLID_59_" class="st1" d="M53.8,13H50c0,0.6,0.2,1.1,0.5,1.4c0.3,0.3,0.7,0.5,1.3,0.5c0.6,0,1.2-0.2,1.7-0.6v0.8
				c-0.5,0.3-1.1,0.5-1.9,0.5c-0.8,0-1.4-0.2-1.8-0.7c-0.4-0.5-0.6-1.2-0.6-2.1c0-0.5,0.1-1,0.3-1.5c0.2-0.4,0.5-0.8,0.9-1
				c0.4-0.2,0.8-0.4,1.3-0.4c0.7,0,1.2,0.2,1.6,0.7c0.4,0.5,0.6,1.1,0.6,1.9V13z M52.9,12.3c0-0.5-0.1-0.9-0.4-1.2
				c-0.2-0.3-0.6-0.4-1-0.4c-0.4,0-0.7,0.1-1,0.4c-0.3,0.3-0.5,0.7-0.5,1.1H52.9z"/>
			<path id="XMLID_20_" class="st1" d="M57.6,15.4c-0.2,0.1-0.5,0.2-0.8,0.2c-0.9,0-1.4-0.5-1.4-1.6v-3.2h-0.9v-0.7h0.9V8.8l0.9-0.3
				v1.6h1.4v0.7h-1.4v3c0,0.4,0.1,0.6,0.2,0.8c0.1,0.2,0.3,0.2,0.6,0.2c0.2,0,0.4-0.1,0.6-0.2L57.6,15.4z"/>
			<path id="XMLID_55_" class="st1" d="M62.2,8.1c0,0.2-0.1,0.3-0.2,0.4c-0.1,0.1-0.2,0.2-0.4,0.2c-0.2,0-0.3-0.1-0.4-0.2
				c-0.1-0.1-0.2-0.2-0.2-0.4c0-0.2,0.1-0.3,0.2-0.4c0.1-0.1,0.2-0.2,0.4-0.2c0.2,0,0.3,0.1,0.4,0.2C62.1,7.9,62.2,8,62.2,8.1z
				 M62.1,15.5h-0.9v-5.4h0.9V15.5z"/>
			<path id="XMLID_17_" class="st1" d="M66.2,15.4c-0.2,0.1-0.5,0.2-0.8,0.2c-0.9,0-1.4-0.5-1.4-1.6v-3.2h-0.9v-0.7H64V8.8l0.9-0.3
				v1.6h1.4v0.7h-1.4v3c0,0.4,0.1,0.6,0.2,0.8c0.1,0.2,0.3,0.2,0.6,0.2c0.2,0,0.4-0.1,0.6-0.2V15.4z"/>
			<path id="XMLID_51_" class="st1" d="M74.7,12.8c0,0.9-0.2,1.5-0.7,2.1c-0.5,0.5-1.1,0.8-1.9,0.8c-0.8,0-1.4-0.3-1.9-0.8
				c-0.5-0.5-0.7-1.2-0.7-2c0-0.9,0.2-1.6,0.7-2.1c0.5-0.5,1.2-0.8,2-0.8c0.8,0,1.4,0.2,1.9,0.8C74.5,11.2,74.7,11.9,74.7,12.8z
				 M73.9,12.8c0-0.7-0.1-1.2-0.4-1.6c-0.3-0.4-0.7-0.5-1.3-0.5c-0.6,0-1,0.2-1.3,0.6c-0.3,0.4-0.5,0.9-0.5,1.6
				c0,0.6,0.2,1.2,0.5,1.5c0.3,0.4,0.8,0.5,1.3,0.5c0.6,0,1-0.2,1.3-0.5C73.7,14,73.9,13.5,73.9,12.8z"/>
			<path id="XMLID_14_" class="st1" d="M80.5,15.5h-0.9v-3.1c0-1.1-0.4-1.7-1.2-1.7c-0.4,0-0.8,0.2-1.1,0.5
				c-0.3,0.3-0.4,0.7-0.4,1.2v3.1H76v-5.4h0.9V11h0c0.4-0.7,1-1,1.8-1c0.6,0,1,0.2,1.3,0.6c0.3,0.4,0.5,0.9,0.5,1.6L80.5,15.5z"/>
			<path id="XMLID_13_" class="st1" d="M57.1,20.1l-3.4,12.1h-1.7l-2.5-8.8c-0.1-0.3-0.2-0.7-0.2-1.2h0c0,0.4-0.1,0.8-0.2,1.2
				l-2.5,8.9H45l-3.5-12.1H43l2.6,9.3c0.1,0.4,0.2,0.8,0.2,1.2h0c0-0.3,0.1-0.7,0.3-1.2l2.7-9.3h1.4l2.5,9.3
				c0.1,0.3,0.2,0.7,0.2,1.1h0c0-0.3,0.1-0.7,0.2-1.2l2.5-9.3L57.1,20.1L57.1,20.1z"/>
			<path id="XMLID_46_" class="st1" d="M60,20.5c0,0.3-0.1,0.5-0.3,0.6c-0.2,0.2-0.4,0.3-0.6,0.3c-0.3,0-0.5-0.1-0.6-0.2
				c-0.2-0.2-0.3-0.4-0.3-0.7c0-0.2,0.1-0.5,0.3-0.6s0.4-0.3,0.6-0.3c0.3,0,0.5,0.1,0.6,0.3C59.9,20,60,20.2,60,20.5z M59.8,32.2
				h-1.4v-8.6h1.4V32.2z"/>
			<path id="XMLID_10_" class="st1" d="M69,32.2h-1.4v-4.9c0-1.8-0.7-2.7-2-2.7c-0.7,0-1.2,0.3-1.7,0.8s-0.7,1.2-0.7,2v4.9h-1.4
				v-8.6h1.4V25h0c0.6-1.1,1.6-1.6,2.8-1.6c0.9,0,1.7,0.3,2.2,0.9c0.5,0.6,0.7,1.5,0.7,2.6L69,32.2L69,32.2z"/>
			<path id="XMLID_42_" class="st1" d="M78.8,32.2h-1.4v-1.5h0c-0.6,1.1-1.6,1.7-3,1.7c-1.1,0-1.9-0.4-2.6-1.2c-0.6-0.8-1-1.8-1-3.1
				c0-1.4,0.4-2.6,1.1-3.4c0.7-0.9,1.7-1.3,2.9-1.3c1.2,0,2,0.5,2.6,1.4h0v-5.3h1.4V32.2z M77.5,28.3V27c0-0.7-0.2-1.3-0.7-1.8
				c-0.5-0.5-1-0.7-1.7-0.7c-0.8,0-1.5,0.3-2,0.9c-0.5,0.6-0.7,1.5-0.7,2.6c0,1,0.2,1.8,0.7,2.3s1.1,0.9,1.9,0.9
				c0.8,0,1.4-0.3,1.9-0.8C77.2,29.9,77.5,29.2,77.5,28.3z"/>
			<path id="XMLID_39_" class="st1" d="M88.9,27.9c0,1.4-0.4,2.5-1.2,3.3c-0.8,0.8-1.8,1.3-3.1,1.3c-1.3,0-2.3-0.4-3-1.2
				c-0.8-0.8-1.1-1.9-1.1-3.2c0-1.4,0.4-2.6,1.2-3.4c0.8-0.8,1.8-1.2,3.2-1.2c1.3,0,2.3,0.4,3,1.2C88.5,25.4,88.9,26.5,88.9,27.9z
				 M87.5,27.9c0-1.1-0.2-1.9-0.7-2.5c-0.5-0.6-1.2-0.9-2.1-0.9c-0.9,0-1.6,0.3-2.1,0.9c-0.5,0.6-0.8,1.4-0.8,2.5
				c0,1,0.3,1.8,0.8,2.4c0.5,0.6,1.2,0.9,2.1,0.9c0.9,0,1.6-0.3,2.1-0.9C87.2,29.8,87.5,29,87.5,27.9z"/>
			<path id="XMLID_5_" class="st1" d="M101.3,23.6l-2.6,8.6h-1.4L95.5,26c-0.1-0.2-0.1-0.5-0.1-0.8h0c0,0.2-0.1,0.5-0.2,0.8
				l-1.9,6.2h-1.4l-2.6-8.6h1.4l1.8,6.5c0.1,0.2,0.1,0.5,0.1,0.8h0.1c0-0.2,0.1-0.5,0.2-0.8l2-6.5h1.3l1.8,6.5
				c0.1,0.2,0.1,0.5,0.1,0.8H98c0-0.3,0.1-0.5,0.1-0.8l1.8-6.5L101.3,23.6L101.3,23.6z"/>
			<path id="XMLID_4_" class="st1" d="M107.5,29.9c0,0.7-0.3,1.4-0.9,1.8c-0.6,0.5-1.3,0.7-2.3,0.7c-0.8,0-1.5-0.2-2.1-0.5v-1.5
				c0.7,0.6,1.4,0.8,2.2,0.8c1.1,0,1.6-0.4,1.6-1.2c0-0.3-0.1-0.6-0.3-0.8c-0.2-0.2-0.7-0.5-1.5-0.8c-0.8-0.3-1.3-0.7-1.6-1
				c-0.3-0.4-0.5-0.9-0.5-1.5c0-0.7,0.3-1.3,0.9-1.8c0.6-0.5,1.3-0.7,2.2-0.7c0.7,0,1.3,0.1,1.8,0.4v1.4c-0.6-0.4-1.2-0.6-1.9-0.6
				c-0.5,0-0.8,0.1-1.1,0.3c-0.3,0.2-0.4,0.5-0.4,0.9c0,0.4,0.1,0.7,0.3,0.9c0.2,0.2,0.7,0.4,1.3,0.7c0.8,0.3,1.4,0.7,1.7,1.1
				C107.3,28.8,107.5,29.3,107.5,29.9z"/>
			<path id="XMLID_3_" class="st1" d="M114.2,32.2V21.8c-0.2,0.2-0.6,0.5-1.2,0.8c-0.6,0.3-1.1,0.5-1.6,0.6v-1.4
				c0.6-0.2,1.3-0.4,2-0.8c0.7-0.4,1.3-0.8,1.7-1.1h0.5v12.4H114.2z"/>
			<path id="XMLID_33_" class="st1" d="M125.9,26.1c0,2-0.3,3.5-1,4.7c-0.7,1.1-1.7,1.7-3,1.7c-1.2,0-2.1-0.5-2.8-1.6
				c-0.7-1-1-2.5-1-4.5c0-2.1,0.3-3.7,1-4.8c0.7-1.1,1.7-1.7,3-1.7C124.6,19.9,125.9,22,125.9,26.1z M124.5,26.2
				c0-3.4-0.8-5.2-2.4-5.2c-1.7,0-2.6,1.8-2.6,5.3c0,3.3,0.8,4.9,2.5,4.9C123.6,31.2,124.5,29.6,124.5,26.2z"/>
		</g>
	</g>
</g>
</svg>
